<svg width="329" height="95" viewBox="0 0 329 95" fill="none" xmlns="http://www.w3.org/2000/svg">
<circle cx="155.83" cy="47.2627" r="44.0266" stroke="#8766D4" stroke-width="3"/>
<circle cx="283.473" cy="47.2627" r="44.0266" stroke="#8766D4" stroke-width="3"/>
<path d="M3.24022 1.15629C2.77425 0.471332 1.84124 0.293809 1.15629 0.759778C0.471332 1.22575 0.293809 2.15876 0.759778 2.84371L3.24022 1.15629ZM75.2402 2.84371C75.7062 2.15876 75.5287 1.22575 74.8437 0.759778C74.1588 0.293809 73.2257 0.471332 72.7598 1.15629L75.2402 2.84371ZM36.5 93C36.5 93.8284 37.1716 94.5 38 94.5C38.8284 94.5 39.5 93.8284 39.5 93H36.5ZM0.759778 2.84371L36.7598 55.7622L39.2402 54.0748L3.24022 1.15629L0.759778 2.84371ZM39.2402 55.7622L75.2402 2.84371L72.7598 1.15629L36.7598 54.0748L39.2402 55.7622ZM36.5 54.9185V93H39.5V54.9185H36.5Z" fill="#8766D4"/>
</svg>
